<?xml version="1.0" encoding="iso-8859-1"?>
<!-- Generator: Adobe Illustrator 16.0.0, SVG Export Plug-In . SVG Version: 6.00 Build 0)  -->
<!DOCTYPE svg PUBLIC "-//W3C//DTD SVG 1.1//EN" "http://www.w3.org/Graphics/SVG/1.1/DTD/svg11.dtd">
<svg version="1.1" id="Capa_1" xmlns="http://www.w3.org/2000/svg" xmlns:xlink="http://www.w3.org/1999/xlink" x="0px" y="0px"
	 width="956.1px" height="956.1px" viewBox="0 0 956.1 956.1" style="enable-background:new 0 0 956.1 956.1;" xml:space="preserve"
	>
<g>
	<path d="M479.05,632.6c30.7,0,55.6-24.9,55.6-55.6s-24.899-55.6-55.6-55.6s-55.6,24.9-55.6,55.6
		C423.45,607.6,448.35,632.6,479.05,632.6z"/>
	<path d="M217.55,956.1h522c11,0,19.5-9.5,19.5-20.5v-38c0-11-8.5-19.5-19.5-19.5h-26.5v-58.5c0-11-8.5-19.5-19.5-19.5h-30.5h-368
		h-31.5c-11,0-20.5,8.5-20.5,19.5v58.5h-25.5c-11,0-20.5,8.5-20.5,19.5v38C197.05,946.6,206.55,956.1,217.55,956.1z"/>
	<path d="M258.85,642.1h36.2v119h368v-119h36.2c11,0,19.8-8.799,19.8-19.799V531.6c0-11-8.8-19.5-19.8-19.5h-36.2v-113h-368v113
		h-36.2c-11,0-19.8,8.5-19.8,19.5v90.701C239.05,633.301,247.85,642.1,258.85,642.1z M479.05,475.3c56,0,101.6,45.6,101.6,101.6
		s-45.6,101.6-101.6,101.6s-101.6-45.6-101.6-101.6S423.05,475.3,479.05,475.3z"/>
	<path d="M685.05,282.1h-22v-51.2c0-88-62-161.6-144-179.9V40.4c0-22.3-18.2-40.4-40.5-40.4l0,0c-22.3,0-40.5,18.1-40.5,40.4v10.7
		c-81,18.5-143,92-143,179.8v51.2h-23c-11,0-20,8.7-20,19.7v38c0,11,9,20.3,20,20.3h22.7h368.6h21.7c11,0,20-9.3,20-20.3v-38
		C705.05,290.8,696.05,282.1,685.05,282.1z"/>
</g>
<g>
</g>
<g>
</g>
<g>
</g>
<g>
</g>
<g>
</g>
<g>
</g>
<g>
</g>
<g>
</g>
<g>
</g>
<g>
</g>
<g>
</g>
<g>
</g>
<g>
</g>
<g>
</g>
<g>
</g>
</svg>
