<?xml version='1.0' encoding='iso-8859-1'?>
<svg version="1.1" xmlns="http://www.w3.org/2000/svg" viewBox="0 0 297 297" xmlns:xlink="http://www.w3.org/1999/xlink" enable-background="new 0 0 297 297">
  <g>
    <path d="m285.833,99.5c6.6,0 11.167-5.9 11.167-12.5v-8.5c0-6.6-4.855-13.172-11.297-14.604l-92.474-20.609c-8.234-15.907-24.789-26.787-43.937-26.787-19.126,0-35.686,10.855-43.928,26.733l-93.492,20.672c-6.443,1.427-11.872,7.995-11.872,14.595v8.5c0,6.6 5.733,12.5 12.333,12.5h4.667v164h-8.667c-4.418,0-8.333,3.582-8.333,8v1c0,4.418 3.915,8 8.333,8h281c4.418,0 7.667-3.582 7.667-8v-1c0-4.418-3.249-8-7.667-8h-8.333v-164h4.833zm-129.075-5.67c0-11.166-7.445-21.985-7.445-21.985s-7.443,10.819-7.443,21.985c-18.805,0-22.527-18.61-15.084-29.776 4.012-6.016 12.289-12.815 12.082-24.258-0.049-2.683 2.787-4.445 5.184-3.238 3.033,1.526 6.57,3.915 8.895,7.44 7.986,12.1 3.963,23.914 3.963,23.914s5.078-2.892 9.371-8.01c1.674-1.996 4.857-1.58 5.969,0.776 5.283,11.203 6.443,33.152-15.492,33.152zm-56.925,128.92c0-4.557 3.693-8.25 8.25-8.25 4.557,0 8.25,3.693 8.25,8.25s-3.693,8.25-8.25,8.25c-4.557,0-8.25-3.693-8.25-8.25zm90.25,8.25c-4.557,0-8.25-3.693-8.25-8.25s3.693-8.25 8.25-8.25 8.25,3.693 8.25,8.25-3.693,8.25-8.25,8.25zm-24.083-.5h-33v-16h33v16zm24-32h-33v-33h33v33zm-50,0h-33v-33h33v33zm-33,49h84v16h-84v-16zm124,16h-24v-16.013c5-0.134 8-3.765 8-8.237v-0.5c0-4.473-3-8.104-8-8.237v-70.013c0-6.6-5.067-12-11.667-12h-30.333v-17h-33v17h-28.667c-6.6,0-12.333,5.4-12.333,12v70.013c-4,0.134-8,3.765-8,8.237v0.5c0,4.473 4,8.104 8,8.237v16.013h-24v-164h45.9c9.047,9.834 22.018,16 36.434,16 14.415,0 27.387-6.166 36.434-16h45.232v164z"/>
  </g>
</svg>
